<svg xmlns="http://www.w3.org/2000/svg" xmlns:xlink="http://www.w3.org/1999/xlink" width="100" height="75" viewBox="0 0 100 75">
  <defs>
    <rect id="dfsd-a" width="100" height="100" x="0" y="0"/>
  </defs>
  <g fill="none" fill-rule="evenodd" transform="translate(0 -13)">
    <mask id="dfsd-b" fill="#fff">
      <use xlink:href="#dfsd-a"/>
    </mask>
    <path fill="#8B9095" d="M90.6247839,88 C95.8024602,88 99.9997616,83.8026986 99.9997616,78.6250224 L99.9997616,22.3751565 C99.9997616,17.1974802 95.8024602,13.0001788 90.6247839,13.0001788 L9.37497765,13.0001788 C4.19730139,13.0001788 0,17.1974802 0,22.3751565 L0,78.6250224 C0,83.8026986 4.19730139,88 9.37497765,88 L90.6247839,88 Z M21.8749478,23.9376527 C27.9155066,23.9376527 32.8124218,28.8345679 32.8124218,34.8751267 C32.8124218,40.9156854 27.9155066,45.8126006 21.8749478,45.8126006 C15.8343891,45.8126006 10.9374739,40.9156854 10.9374739,34.8751267 C10.9374739,28.8345679 15.8343891,23.9376527 21.8749478,23.9376527 Z M12.4999702,75.5000298 L12.4999702,66.1250522 L26.4674509,52.1573807 C27.3829761,51.2420463 28.8668898,51.2420463 29.7822242,52.1573807 L40.6249031,63.0000596 L67.0923541,36.5324179 C68.0078792,35.6170835 69.4917929,35.6170835 70.4071274,36.5324179 L87.4997914,53.625082 L87.4997914,75.5000298 L12.4999702,75.5000298 Z" mask="url(#dfsd-b)"/>
  </g>
</svg>
